<svg width="28" height="28" viewBox="0 0 28 28" fill="none" xmlns="http://www.w3.org/2000/svg">
<path d="M4.9068 10.2003L13.4068 3.93709C13.7596 3.67717 14.2404 3.67717 14.5932 3.93709L23.0932 10.2003C23.349 10.3887 23.5 10.6876 23.5 11.0053V22.5C23.5 23.0523 23.0523 23.5 22.5 23.5H17.3636C16.8867 23.5 16.5 23.1133 16.5 22.6364V16.5C16.5 15.1193 15.3807 14 14 14C12.6193 14 11.5 15.1193 11.5 16.5V22.6364C11.5 23.1133 11.1133 23.5 10.6364 23.5H5.5C4.94772 23.5 4.5 23.0523 4.5 22.5V11.0053C4.5 10.6876 4.651 10.3887 4.9068 10.2003Z" fill="#212833" stroke="#212833" stroke-width="1.5"/>
</svg>
