<svg width="24" height="24" viewBox="0 0 24 24" fill="none" xmlns="http://www.w3.org/2000/svg">
<g clip-path="url(#clip0_291_4729)">
<path fill-rule="evenodd" clip-rule="evenodd" d="M11.8763 12.7657L17.5333 18.4227C17.7219 18.6049 17.9745 18.7057 18.2367 18.7034C18.4989 18.7011 18.7497 18.5959 18.9351 18.4105C19.1205 18.2251 19.2257 17.9743 19.228 17.7121C19.2302 17.4499 19.1294 17.1973 18.9473 17.0087L13.2903 11.3517L18.9473 5.69471C19.1294 5.50611 19.2302 5.25351 19.228 4.99131C19.2257 4.72911 19.1205 4.4783 18.9351 4.29289C18.7497 4.10749 18.4989 4.00232 18.2367 4.00004C17.9745 3.99776 17.7219 4.09855 17.5333 4.28071L11.8763 9.93771L6.21929 4.28071C6.02984 4.10306 5.7787 4.00608 5.51902 4.01029C5.25934 4.01451 5.01148 4.11959 4.8279 4.30331C4.64431 4.48702 4.53941 4.73495 4.53537 4.99463C4.53134 5.25432 4.6285 5.50539 4.80629 5.69471L10.4623 11.3517L4.80529 17.0087C4.70978 17.101 4.6336 17.2113 4.58119 17.3333C4.52878 17.4553 4.50119 17.5865 4.50004 17.7193C4.49888 17.8521 4.52419 17.9838 4.57447 18.1067C4.62475 18.2296 4.699 18.3412 4.79289 18.4351C4.88679 18.529 4.99844 18.6033 5.12133 18.6535C5.24423 18.7038 5.37591 18.7291 5.50869 18.728C5.64147 18.7268 5.77269 18.6992 5.89469 18.6468C6.0167 18.5944 6.12704 18.5182 6.21929 18.4227L11.8763 12.7657Z" fill="#10161F"/>
</g>
<defs>
<clipPath id="clip0_291_4729">
<rect width="24" height="24" fill="white"/>
</clipPath>
</defs>
</svg>
