<svg width="20" height="20" viewBox="0 0 20 20" fill="none" xmlns="http://www.w3.org/2000/svg">
<path d="M2.54166 7.75846C2.50624 7.65267 2.49241 7.54085 2.50101 7.42962C2.50961 7.31839 2.54046 7.21002 2.59172 7.11093C2.64299 7.01185 2.71362 6.92406 2.79945 6.85279C2.88527 6.78151 2.98453 6.72819 3.09134 6.69599C3.19815 6.66379 3.31035 6.65336 3.42126 6.66533C3.53218 6.6773 3.63956 6.71142 3.73705 6.76566C3.83454 6.8199 3.92014 6.89317 3.98878 6.98111C4.05743 7.06905 4.10771 7.16988 4.13666 7.27762C5.87499 13.0993 14.1217 13.1001 15.8617 7.28096C15.8928 7.17601 15.9444 7.07823 16.0134 6.99321C16.0824 6.90818 16.1674 6.83758 16.2637 6.78542C16.3599 6.73327 16.4655 6.70058 16.5744 6.68924C16.6833 6.67789 16.7934 6.6881 16.8983 6.71929C17.0033 6.75048 17.1011 6.80203 17.1861 6.87101C17.2711 6.93999 17.3417 7.02503 17.3939 7.1213C17.446 7.21756 17.4787 7.32316 17.49 7.43205C17.5014 7.54094 17.4912 7.65101 17.46 7.75596C17.1568 8.79861 16.6425 9.76783 15.9492 10.6035L17.0117 11.6668C17.1635 11.824 17.2475 12.0345 17.2456 12.253C17.2437 12.4715 17.156 12.6805 17.0015 12.835C16.847 12.9895 16.638 13.0771 16.4195 13.079C16.201 13.0809 15.9905 12.9969 15.8333 12.8451L14.7408 11.7526C14.1512 12.1972 13.4999 12.5535 12.8075 12.8101L13.105 13.9226C13.1367 14.0293 13.1468 14.1413 13.1345 14.252C13.1222 14.3626 13.0879 14.4697 13.0336 14.5669C12.9793 14.664 12.906 14.7493 12.8182 14.8177C12.7303 14.8861 12.6297 14.9362 12.5221 14.9651C12.4146 14.9939 12.3024 15.0009 12.1921 14.9857C12.0818 14.9704 11.9757 14.9332 11.8801 14.8763C11.7844 14.8194 11.7011 14.7438 11.6351 14.6542C11.5691 14.5645 11.5218 14.4626 11.4958 14.3543L11.1925 13.2235C10.4033 13.3401 9.59666 13.3401 8.80749 13.2235L8.50416 14.3543C8.47823 14.4626 8.43087 14.5645 8.36487 14.6542C8.29887 14.7438 8.21558 14.8194 8.11991 14.8763C8.02424 14.9332 7.91814 14.9704 7.80786 14.9857C7.69758 15.0009 7.58536 14.9939 7.47784 14.9651C7.37031 14.9362 7.26965 14.8861 7.18181 14.8177C7.09396 14.7493 7.02071 14.664 6.96638 14.5669C6.91206 14.4697 6.87775 14.3626 6.86548 14.252C6.85322 14.1413 6.86326 14.0293 6.89499 13.9226L7.19249 12.8101C6.50004 12.5532 5.84874 12.1967 5.25916 11.7518L4.16749 12.8451C4.01124 13.0016 3.79922 13.0896 3.57808 13.0898C3.35694 13.0899 3.1448 13.0022 2.98833 12.846C2.83185 12.6897 2.74385 12.4777 2.7437 12.2565C2.74354 12.0354 2.83124 11.8233 2.98749 11.6668L4.04999 10.6043C3.39666 9.82429 2.87499 8.87596 2.53999 7.75929L2.54166 7.75846Z" fill="#92A1B7"/>
</svg>
