<svg width="24" height="24" viewBox="0 0 24 24" fill="none" xmlns="http://www.w3.org/2000/svg">
<path fill-rule="evenodd" clip-rule="evenodd" d="M8.29279 12.707C8.10532 12.5195 8 12.2652 8 12C8 11.7348 8.10532 11.4805 8.29279 11.293L13.9498 5.63601C14.042 5.5405 14.1524 5.46431 14.2744 5.41191C14.3964 5.3595 14.5276 5.33191 14.6604 5.33076C14.7932 5.3296 14.9248 5.3549 15.0477 5.40519C15.1706 5.45547 15.2823 5.52972 15.3762 5.62361C15.4701 5.71751 15.5443 5.82916 15.5946 5.95205C15.6449 6.07495 15.6702 6.20663 15.669 6.33941C15.6679 6.47219 15.6403 6.60341 15.5879 6.72541C15.5355 6.84742 15.4593 6.95776 15.3638 7.05001L10.4138 12L15.3638 16.95C15.5459 17.1386 15.6467 17.3912 15.6445 17.6534C15.6422 17.9156 15.537 18.1664 15.3516 18.3518C15.1662 18.5372 14.9154 18.6424 14.6532 18.6447C14.391 18.647 14.1384 18.5462 13.9498 18.364L8.29279 12.707Z" fill="black"/>
<path fill-rule="evenodd" clip-rule="evenodd" d="M8.29279 12.707C8.10532 12.5195 8 12.2652 8 12C8 11.7348 8.10532 11.4805 8.29279 11.293L13.9498 5.63601C14.042 5.5405 14.1524 5.46431 14.2744 5.41191C14.3964 5.3595 14.5276 5.33191 14.6604 5.33076C14.7932 5.3296 14.9248 5.3549 15.0477 5.40519C15.1706 5.45547 15.2823 5.52972 15.3762 5.62361C15.4701 5.71751 15.5443 5.82916 15.5946 5.95205C15.6449 6.07495 15.6702 6.20663 15.669 6.33941C15.6679 6.47219 15.6403 6.60341 15.5879 6.72541C15.5355 6.84742 15.4593 6.95776 15.3638 7.05001L10.4138 12L15.3638 16.95C15.5459 17.1386 15.6467 17.3912 15.6445 17.6534C15.6422 17.9156 15.537 18.1664 15.3516 18.3518C15.1662 18.5372 14.9154 18.6424 14.6532 18.6447C14.391 18.647 14.1384 18.5462 13.9498 18.364L8.29279 12.707Z" fill="black" fill-opacity="0.2"/>
</svg>
