<svg width="20" height="20" viewBox="0 0 20 20" fill="none" xmlns="http://www.w3.org/2000/svg">
<g clip-path="url(#clip0_291_4660)">
<path d="M1.72317 4.56825L9.119 11.9649C9.3378 12.1839 9.63004 12.3138 9.93916 12.3297C10.2483 12.3456 10.5523 12.2462 10.7923 12.0508L10.8873 11.9649L18.2782 4.57325C18.3023 4.66492 18.3182 4.75825 18.3265 4.85409L18.3332 4.99992V14.9999C18.3333 15.4204 18.1745 15.8254 17.8886 16.1337C17.6027 16.442 17.2108 16.6309 16.7915 16.6624L16.6665 16.6666H3.33317C2.91269 16.6667 2.5077 16.5079 2.19938 16.222C1.89106 15.9361 1.70221 15.5442 1.67067 15.1249L1.6665 14.9999V4.99992C1.6665 4.89992 1.67484 4.80325 1.6915 4.70825L1.72317 4.56825ZM16.6665 3.33325C16.7673 3.33325 16.8665 3.34159 16.9623 3.35909L17.104 3.39159L10.004 10.4916L2.9015 3.38992C2.99317 3.36492 3.08817 3.34825 3.18484 3.33992L3.33317 3.33325H16.6665Z" fill="white"/>
</g>
<defs>
<clipPath id="clip0_291_4660">
<rect width="20" height="20" fill="white"/>
</clipPath>
</defs>
</svg>
