<svg width="20" height="20" viewBox="0 0 20 20" fill="none" xmlns="http://www.w3.org/2000/svg">
<g clip-path="url(#clip0_1301_4587)">
<path fill-rule="evenodd" clip-rule="evenodd" d="M11.2498 2.5C13.1285 2.5 14.9301 3.24628 16.2585 4.57466C17.5869 5.90304 18.3332 7.70472 18.3332 9.58333C18.3332 11.462 17.5869 13.2636 16.2585 14.592C14.9301 15.9204 13.1285 16.6667 11.2498 16.6667H10.8332V17.4917C10.8332 17.6023 10.8114 17.7118 10.769 17.814C10.7267 17.9161 10.6646 18.0089 10.5864 18.0871C10.5081 18.1653 10.4152 18.2273 10.313 18.2695C10.2108 18.3118 10.1013 18.3334 9.99067 18.3333C7.94067 18.3317 5.864 17.6475 4.28817 16.2467C2.69817 14.8317 1.66817 12.7292 1.6665 10.0075V9.58333C1.6665 7.70472 2.41278 5.90304 3.74116 4.57466C5.06955 3.24628 6.87122 2.5 8.74984 2.5H11.2498ZM7.08317 8.33333C6.75165 8.33333 6.43371 8.46503 6.19929 8.69945C5.96487 8.93387 5.83317 9.25181 5.83317 9.58333C5.83317 9.91485 5.96487 10.2328 6.19929 10.4672C6.43371 10.7016 6.75165 10.8333 7.08317 10.8333C7.41469 10.8333 7.73263 10.7016 7.96705 10.4672C8.20147 10.2328 8.33317 9.91485 8.33317 9.58333C8.33317 9.25181 8.20147 8.93387 7.96705 8.69945C7.73263 8.46503 7.41469 8.33333 7.08317 8.33333ZM12.9165 8.33333C12.585 8.33333 12.267 8.46503 12.0326 8.69945C11.7982 8.93387 11.6665 9.25181 11.6665 9.58333C11.6665 9.91485 11.7982 10.2328 12.0326 10.4672C12.267 10.7016 12.585 10.8333 12.9165 10.8333C13.248 10.8333 13.566 10.7016 13.8004 10.4672C14.0348 10.2328 14.1665 9.91485 14.1665 9.58333C14.1665 9.25181 14.0348 8.93387 13.8004 8.69945C13.566 8.46503 13.248 8.33333 12.9165 8.33333Z" fill="url(#paint0_linear_1301_4587)"/>
</g>
<defs>
<linearGradient id="paint0_linear_1301_4587" x1="20.9999" y1="-1" x2="-2.8077" y2="24.6086" gradientUnits="userSpaceOnUse">
<stop stop-color="#C5CEDB"/>
<stop offset="1" stop-color="#696E75"/>
</linearGradient>
<clipPath id="clip0_1301_4587">
<rect width="20" height="20" fill="white"/>
</clipPath>
</defs>
</svg>
