<svg width="28" height="28" viewBox="0 0 28 28" fill="none" xmlns="http://www.w3.org/2000/svg">
<path d="M4.4068 10.2003L12.9068 3.93709C13.2596 3.67717 13.7404 3.67717 14.0932 3.93709L22.5932 10.2003C22.849 10.3887 23 10.6876 23 11.0053V22.5C23 23.0523 22.5523 23.5 22 23.5H16.8636C16.3867 23.5 16 23.1133 16 22.6364V16.5C16 15.1193 14.8807 14 13.5 14C12.1193 14 11 15.1193 11 16.5V22.6364C11 23.1133 10.6133 23.5 10.1364 23.5H5C4.44772 23.5 4 23.0523 4 22.5V11.0053C4 10.6876 4.151 10.3887 4.4068 10.2003Z" stroke="#92A1B7" stroke-width="1.5"/>
</svg>
