<svg width="60" height="19" viewBox="0 0 60 19" fill="none" xmlns="http://www.w3.org/2000/svg">
<path d="M47.5776 18.4302V0H59.7966V4.50573H52.3634V7.1277H59.0838V11.1243H52.3634V13.9245H60.0002V18.4302H47.5776Z" fill="#FF8200"/>
<path d="M28.8672 18.4302V0H34.9766C41.1243 0 45.21 3.6784 45.21 9.2151C45.21 14.7518 41.1243 18.4302 34.9766 18.4302H28.8672ZM33.6529 13.9245H34.9766C38.4005 13.9245 40.4243 12.1935 40.4243 9.2151C40.4243 6.23674 38.4005 4.50573 34.9766 4.50573H33.6529V13.9245Z" fill="black"/>
<path d="M28.8672 18.4302V0H34.9766C41.1243 0 45.21 3.6784 45.21 9.2151C45.21 14.7518 41.1243 18.4302 34.9766 18.4302H28.8672ZM33.6529 13.9245H34.9766C38.4005 13.9245 40.4243 12.1935 40.4243 9.2151C40.4243 6.23674 38.4005 4.50573 34.9766 4.50573H33.6529V13.9245Z" fill="black" fill-opacity="0.2"/>
<path d="M21.0269 18.4302V0H25.8126V18.4302H21.0269Z" fill="black"/>
<path d="M21.0269 18.4302V0H25.8126V18.4302H21.0269Z" fill="black" fill-opacity="0.2"/>
<path d="M13.7208 18.4302L12.6771 15.1209H6.33857L5.26941 18.4302H0L7.1277 0H11.888L19.0157 18.4302H13.7208ZM7.68774 10.9461H11.328L9.57149 5.47306H9.44421L7.68774 10.9461Z" fill="black"/>
<path d="M13.7208 18.4302L12.6771 15.1209H6.33857L5.26941 18.4302H0L7.1277 0H11.888L19.0157 18.4302H13.7208ZM7.68774 10.9461H11.328L9.57149 5.47306H9.44421L7.68774 10.9461Z" fill="black" fill-opacity="0.2"/>
</svg>
