<svg width="20" height="20" viewBox="0 0 20 20" fill="none" xmlns="http://www.w3.org/2000/svg">
<g clip-path="url(#clip0_334_3206)">
<path d="M9.99984 1.66669C14.6023 1.66669 18.3332 5.39752 18.3332 10C18.3332 14.6025 14.6023 18.3334 9.99984 18.3334C5.39734 18.3334 1.6665 14.6025 1.6665 10C1.6665 5.39752 5.39734 1.66669 9.99984 1.66669ZM12.9457 6.98419L8.82067 11.1092L7.054 9.34169C6.97663 9.26426 6.88477 9.20283 6.78366 9.16091C6.68255 9.11899 6.57417 9.09739 6.46472 9.09735C6.24366 9.09727 6.03162 9.18501 5.87525 9.34127C5.71889 9.49753 5.631 9.7095 5.63092 9.93056C5.63084 10.1516 5.71858 10.3637 5.87484 10.52L8.17317 12.8184C8.2583 12.9035 8.35937 12.9711 8.47061 13.0172C8.58185 13.0633 8.70109 13.087 8.8215 13.087C8.94192 13.087 9.06115 13.0633 9.1724 13.0172C9.28364 12.9711 9.38471 12.9035 9.46984 12.8184L14.1248 8.16335C14.2812 8.00699 14.3691 7.79491 14.3691 7.57377C14.3691 7.35263 14.2812 7.14055 14.1248 6.98419C13.9685 6.82782 13.7564 6.73997 13.5353 6.73997C13.3141 6.73997 13.102 6.82782 12.9457 6.98419Z" fill="url(#paint0_linear_334_3206)"/>
</g>
<defs>
<linearGradient id="paint0_linear_334_3206" x1="1.63356" y1="-5.62498" x2="18.448" y2="-5.58564" gradientUnits="userSpaceOnUse">
<stop offset="0.03" stop-color="#FFB86E"/>
<stop offset="1" stop-color="#FF8200"/>
</linearGradient>
<clipPath id="clip0_334_3206">
<rect width="20" height="20" fill="white"/>
</clipPath>
</defs>
</svg>
