<svg width="96" height="30" viewBox="0 0 96 30" fill="none" xmlns="http://www.w3.org/2000/svg">
<path d="M21.9318 29.4596L20.2635 24.1699H10.1317L8.42269 29.4596H-0.000161536L11.3931 -3.8892e-05H19.0021L30.3953 29.4596H21.9318ZM12.2882 17.4967H18.1069L15.2993 8.74833H15.0959L12.2882 17.4967ZM33.6099 29.4596V-3.8892e-05H41.2596V29.4596H33.6099ZM46.1424 29.4596V-3.8892e-05H55.908C65.7347 -3.8892e-05 72.2655 5.87968 72.2655 14.7298C72.2655 23.5799 65.7347 29.4596 55.908 29.4596H46.1424ZM53.7922 22.2574H55.908C61.3809 22.2574 64.6157 19.4905 64.6157 14.7298C64.6157 9.96904 61.3809 7.20211 55.908 7.20211H53.7922V22.2574Z" fill="black"/>
<path d="M21.9318 29.4596L20.2635 24.1699H10.1317L8.42269 29.4596H-0.000161536L11.3931 -3.8892e-05H19.0021L30.3953 29.4596H21.9318ZM12.2882 17.4967H18.1069L15.2993 8.74833H15.0959L12.2882 17.4967ZM33.6099 29.4596V-3.8892e-05H41.2596V29.4596H33.6099ZM46.1424 29.4596V-3.8892e-05H55.908C65.7347 -3.8892e-05 72.2655 5.87968 72.2655 14.7298C72.2655 23.5799 65.7347 29.4596 55.908 29.4596H46.1424ZM53.7922 22.2574H55.908C61.3809 22.2574 64.6157 19.4905 64.6157 14.7298C64.6157 9.96904 61.3809 7.20211 55.908 7.20211H53.7922V22.2574Z" fill="black" fill-opacity="0.2"/>
<path d="M76.0496 29.4596V-3.8892e-05H95.5809V7.20211H83.6994V11.3932H94.4416V17.7815H83.6994V22.2574H95.9064V29.4596H76.0496Z" fill="#FF8200"/>
</svg>
