<svg width="96" height="30" viewBox="0 0 96 30" fill="none" xmlns="http://www.w3.org/2000/svg">
<path d="M21.932 29.4596L20.2638 24.1699H10.1319L8.42293 29.4596H8.26046e-05L11.3933 -3.8892e-05H19.0024L30.3956 29.4596H21.932ZM12.2885 17.4967H18.1072L15.2996 8.74833H15.0961L12.2885 17.4967ZM33.6101 29.4596V-3.8892e-05H41.2598V29.4596H33.6101ZM46.1427 29.4596V-3.8892e-05H55.9083C65.7349 -3.8892e-05 72.2657 5.87968 72.2657 14.7298C72.2657 23.5799 65.7349 29.4596 55.9083 29.4596H46.1427ZM53.7924 22.2574H55.9083C61.3811 22.2574 64.616 19.4905 64.616 14.7298C64.616 9.96904 61.3811 7.20211 55.9083 7.20211H53.7924V22.2574Z" fill="black"/>
<path d="M21.932 29.4596L20.2638 24.1699H10.1319L8.42293 29.4596H8.26046e-05L11.3933 -3.8892e-05H19.0024L30.3956 29.4596H21.932ZM12.2885 17.4967H18.1072L15.2996 8.74833H15.0961L12.2885 17.4967ZM33.6101 29.4596V-3.8892e-05H41.2598V29.4596H33.6101ZM46.1427 29.4596V-3.8892e-05H55.9083C65.7349 -3.8892e-05 72.2657 5.87968 72.2657 14.7298C72.2657 23.5799 65.7349 29.4596 55.9083 29.4596H46.1427ZM53.7924 22.2574H55.9083C61.3811 22.2574 64.616 19.4905 64.616 14.7298C64.616 9.96904 61.3811 7.20211 55.9083 7.20211H53.7924V22.2574Z" fill="black" fill-opacity="0.2"/>
<path d="M76.0499 29.4596V-3.8892e-05H95.5811V7.20211H83.6996V11.3932H94.4418V17.7815H83.6996V22.2574H95.9067V29.4596H76.0499Z" fill="#FF8200"/>
</svg>
