<svg width="20" height="20" viewBox="0 0 20 20" fill="none" xmlns="http://www.w3.org/2000/svg">
<g clip-path="url(#clip0_334_3605)">
<path fill-rule="evenodd" clip-rule="evenodd" d="M1.6665 8.75021C1.6666 7.6207 1.93681 6.5076 2.45458 5.50376C2.97236 4.49992 3.72268 3.63446 4.64297 2.97957C5.56325 2.32469 6.62679 1.89939 7.74487 1.73913C8.86295 1.57888 10.0031 1.68834 11.0703 2.05836C12.1375 2.42838 13.1007 3.04825 13.8796 3.86624C14.6585 4.68423 15.2305 5.67663 15.5478 6.76064C15.8652 7.84465 15.9187 8.98883 15.7039 10.0977C15.4892 11.2066 15.0123 12.2481 14.3132 13.1352L17.3565 16.1785C17.5083 16.3357 17.5923 16.5462 17.5904 16.7647C17.5885 16.9832 17.5009 17.1922 17.3464 17.3467C17.1918 17.5012 16.9828 17.5889 16.7643 17.5908C16.5458 17.5927 16.3353 17.5087 16.1782 17.3569L13.1348 14.3135C12.0904 15.1369 10.8352 15.6495 9.51294 15.7928C8.19071 15.9361 6.85485 15.7042 5.65825 15.1237C4.46164 14.5433 3.45263 13.6376 2.7467 12.5105C2.04076 11.3833 1.66641 10.0802 1.6665 8.75021ZM8.74984 5.00021C8.52882 5.00021 8.31686 5.08801 8.16058 5.24429C8.0043 5.40057 7.9165 5.61253 7.9165 5.83354C7.9165 6.05456 8.0043 6.26652 8.16058 6.4228C8.31686 6.57908 8.52882 6.66688 8.74984 6.66688C9.30237 6.66688 9.83228 6.88637 10.223 7.27707C10.6137 7.66777 10.8332 8.19768 10.8332 8.75021C10.8332 8.97122 10.921 9.18319 11.0772 9.33947C11.2335 9.49575 11.4455 9.58354 11.6665 9.58354C11.8875 9.58354 12.0995 9.49575 12.2558 9.33947C12.412 9.18319 12.4998 8.97122 12.4998 8.75021C12.4998 7.75565 12.1047 6.80182 11.4015 6.09856C10.6982 5.3953 9.7444 5.00021 8.74984 5.00021Z" fill="url(#paint0_linear_334_3605)"/>
</g>
<defs>
<linearGradient id="paint0_linear_334_3605" x1="1.63503" y1="-5.29897" x2="17.7002" y2="-5.26138" gradientUnits="userSpaceOnUse">
<stop offset="0.03" stop-color="#FFB86E"/>
<stop offset="1" stop-color="#FF8200"/>
</linearGradient>
<clipPath id="clip0_334_3605">
<rect width="20" height="20" fill="white"/>
</clipPath>
</defs>
</svg>
