<svg width="44" height="44" viewBox="0 0 44 44" fill="none" xmlns="http://www.w3.org/2000/svg">
<path d="M21.2132 3.93848C25.5892 3.93848 29.7861 5.67687 32.8804 8.77121C35.9748 11.8656 37.7132 16.0624 37.7132 20.4385C37.7132 26.0741 34.6405 30.6868 31.4028 33.996C29.7849 35.6311 28.0199 37.1138 26.1302 38.4253L25.3492 38.957L24.9825 39.2008L24.2913 39.6408L23.6753 40.0166L22.9127 40.4603C22.3947 40.7551 21.8091 40.9101 21.2132 40.9101C20.6172 40.9101 20.0316 40.7551 19.5137 40.4603L18.751 40.0166L17.7977 39.43L17.4457 39.2008L16.694 38.7003C14.6553 37.3204 12.7561 35.7448 11.0235 33.996C7.78582 30.685 4.71315 26.0741 4.71315 20.4385C4.71315 16.0624 6.45154 11.8656 9.54589 8.77121C12.6402 5.67687 16.8371 3.93848 21.2132 3.93848Z" fill="#FF8200"/>
<path d="M14 25H13C11.9 25 11 24.1 11 23V21.07C11 20.4 11.33 19.78 11.89 19.41L14 18L15.41 16.59C15.79 16.21 16.29 16 16.82 16H24.16C24.69 16 25.2 16.21 25.57 16.59L28.98 20L31.47 20.62C32.36 20.84 32.98 21.64 32.98 22.56V24C32.98 24.55 32.53 25 31.98 25H30.98" fill="white"/>
<path d="M14 25H13C11.9 25 11 24.1 11 23V21.07C11 20.4 11.33 19.78 11.89 19.41L14 18L15.41 16.59C15.79 16.21 16.29 16 16.82 16H24.16C24.69 16 25.2 16.21 25.57 16.59L28.98 20L31.47 20.62C32.36 20.84 32.98 21.64 32.98 22.56V24C32.98 24.55 32.53 25 31.98 25H30.98" stroke="#E8550D" stroke-linecap="round" stroke-linejoin="round"/>
<path d="M27 25H18" stroke="#E8550D" stroke-linecap="round" stroke-linejoin="round"/>
<path d="M29 27C30.1046 27 31 26.1046 31 25C31 23.8954 30.1046 23 29 23C27.8954 23 27 23.8954 27 25C27 26.1046 27.8954 27 29 27Z" fill="white" stroke="#E8550D" stroke-linecap="round" stroke-linejoin="round"/>
<path d="M16 27C17.1046 27 18 26.1046 18 25C18 23.8954 17.1046 23 16 23C14.8954 23 14 23.8954 14 25C14 26.1046 14.8954 27 16 27Z" fill="white" stroke="#E8550D" stroke-linecap="round" stroke-linejoin="round"/>
<path d="M29 20H25C24.45 20 24 19.55 24 19V18" fill="white"/>
<path d="M29 20H25C24.45 20 24 19.55 24 19V18" stroke="#E8550D" stroke-linecap="round" stroke-linejoin="round"/>
<path d="M21 20H17" stroke="#E8550D" stroke-linecap="round" stroke-linejoin="round"/>
</svg>
