<svg width="28" height="28" viewBox="0 0 28 28" fill="none" xmlns="http://www.w3.org/2000/svg">
<path d="M7.5 13.5C9.5 14.8333 14.9 16.7 20.5 13.5M3.5 14.2723V19.7947C3.5 19.9302 3.52751 20.0642 3.58086 20.1887L4.74025 22.8939C4.89783 23.2616 5.25937 23.5 5.6594 23.5H8C8.55228 23.5 9 23.0523 9 22.5V22C9 21.4477 9.44772 21 10 21H18C18.5523 21 19 21.4477 19 22V22.5C19 23.0523 19.4477 23.5 20 23.5H22.3406C22.7406 23.5 23.1022 23.2616 23.2597 22.8939L24.4191 20.1887C24.4725 20.0642 24.5 19.9302 24.5 19.7947V14.2723C24.5 14.094 24.4523 13.919 24.3619 13.7653L19.79 5.99298C19.6103 5.68754 19.2824 5.5 18.9281 5.5H9.07195C8.71758 5.5 8.38968 5.68754 8.21001 5.99298L3.63807 13.7653C3.54767 13.919 3.5 14.094 3.5 14.2723Z" stroke="#92A1B7" stroke-width="1.5" stroke-linecap="round"/>
</svg>
