<svg width="16" height="16" viewBox="0 0 16 16" fill="none" xmlns="http://www.w3.org/2000/svg">
<path fill-rule="evenodd" clip-rule="evenodd" d="M9.99992 2.79613V13.2041C9.99996 13.3389 9.96285 13.4711 9.89265 13.5862C9.82245 13.7013 9.72189 13.7948 9.60202 13.8565C9.48214 13.9181 9.34759 13.9456 9.21314 13.9357C9.0787 13.9259 8.94956 13.8792 8.83992 13.8008L4.45325 10.6668H2.66659C2.31296 10.6668 1.97382 10.5263 1.72378 10.2763C1.47373 10.0262 1.33325 9.68709 1.33325 9.33347V6.6668C1.33325 6.31318 1.47373 5.97404 1.72378 5.72399C1.97382 5.47394 2.31296 5.33347 2.66659 5.33347H4.45325L8.83992 2.20013C8.94951 2.12173 9.07859 2.07505 9.21297 2.06519C9.34736 2.05534 9.48187 2.08271 9.60172 2.14429C9.72157 2.20587 9.82214 2.29928 9.89239 2.41427C9.96263 2.52926 9.99984 2.66138 9.99992 2.79613ZM8.66659 3.9628L5.22792 6.41747C5.00199 6.57928 4.73115 6.66645 4.45325 6.6668H2.66659V9.33347H4.45325C4.731 9.33343 5.00183 9.42013 5.22792 9.58147L8.66659 12.0381V3.9628ZM12.1699 4.57413C12.2879 4.44241 12.4533 4.36294 12.6298 4.35319C12.8063 4.34344 12.9795 4.40421 13.1113 4.52213C13.6011 4.95944 13.9928 5.49538 14.2609 6.09479C14.5289 6.6942 14.6672 7.34352 14.6666 8.00013C14.6672 8.65675 14.5289 9.30607 14.2609 9.90548C13.9928 10.5049 13.6011 11.0408 13.1113 11.4781C13.0462 11.5375 12.97 11.5834 12.8871 11.6131C12.8042 11.6428 12.7163 11.6559 12.6283 11.6514C12.5403 11.647 12.4541 11.6251 12.3747 11.5872C12.2952 11.5492 12.224 11.4959 12.1653 11.4303C12.1065 11.3647 12.0614 11.2881 12.0324 11.2049C12.0034 11.1217 11.9912 11.0336 11.9965 10.9457C12.0018 10.8578 12.0244 10.7718 12.0631 10.6927C12.1018 10.6136 12.1558 10.5429 12.2219 10.4848C12.572 10.1725 12.8521 9.78971 13.0436 9.36146C13.2352 8.93321 13.3339 8.46926 13.3333 8.00013C13.3333 7.01347 12.9053 6.1268 12.2219 5.51547C12.0902 5.39753 12.0107 5.2321 12.001 5.05557C11.9912 4.87904 12.052 4.70586 12.1699 4.57413ZM11.7779 6.0128C12.0578 6.2627 12.2816 6.56895 12.4348 6.91144C12.5879 7.25394 12.6669 7.62495 12.6666 8.00013C12.667 8.37533 12.588 8.74636 12.4349 9.08887C12.2817 9.43138 12.0578 9.73762 11.7779 9.98747C11.6515 10.0997 11.4871 10.1598 11.3181 10.1555C11.1491 10.1511 10.988 10.0827 10.8675 9.96407C10.747 9.84544 10.6761 9.68546 10.6691 9.51652C10.6621 9.34758 10.7196 9.18229 10.8299 9.05413L10.8886 8.99413C11.1619 8.7488 11.3333 8.3948 11.3333 8.00013C11.334 7.65874 11.2032 7.33018 10.9679 7.0828L10.8886 7.00613C10.7587 6.8877 10.6809 6.72279 10.672 6.54727C10.6632 6.37176 10.7239 6.19984 10.8412 6.0689C10.9584 5.93797 11.1226 5.85862 11.298 5.84812C11.4734 5.83761 11.6459 5.89679 11.7779 6.0128Z" fill="#363F4D"/>
</svg>
