<svg width="20" height="20" viewBox="0 0 20 20" fill="none" xmlns="http://www.w3.org/2000/svg">
<path fill-rule="evenodd" clip-rule="evenodd" d="M3.33317 10.0008C3.33567 9.98746 3.34734 9.91413 3.41234 9.76996C3.484 9.61079 3.59984 9.41079 3.76567 9.17996C4.09734 8.71913 4.59317 8.18663 5.21984 7.68163C6.48067 6.66329 8.1765 5.83329 9.99984 5.83329C11.8232 5.83329 13.519 6.66329 14.7798 7.67996C15.4065 8.18496 15.9023 8.71746 16.234 9.17829C16.4007 9.40913 16.5157 9.60913 16.5873 9.76829C16.6523 9.91246 16.664 9.98579 16.6665 9.99913V9.99996C16.664 10.0133 16.6523 10.0866 16.5873 10.2308C16.489 10.4385 16.3706 10.6361 16.234 10.8208C15.9023 11.2816 15.4065 11.8141 14.7798 12.3191C13.5198 13.3366 11.824 14.1666 9.99984 14.1666C8.1765 14.1666 6.48067 13.3366 5.21984 12.32C4.59317 11.815 4.09734 11.2825 3.76567 10.8216C3.62893 10.637 3.51058 10.4393 3.41234 10.2316C3.37591 10.1585 3.3493 10.0809 3.33317 10.0008ZM9.99984 4.16663C7.68067 4.16663 5.6265 5.21163 4.174 6.38246C3.44317 6.97079 2.84067 7.61079 2.41317 8.20496C2.21074 8.47995 2.03626 8.77447 1.89234 9.08413C1.769 9.35829 1.6665 9.67579 1.6665 9.99996C1.6665 10.3233 1.769 10.6425 1.8915 10.9158C2.02067 11.2008 2.19984 11.4991 2.41317 11.795C2.84067 12.3891 3.44317 13.0283 4.174 13.6175C5.6265 14.7883 7.68067 15.8333 9.99984 15.8333C12.319 15.8333 14.3732 14.7883 15.8257 13.6175C16.5565 13.0291 17.159 12.3891 17.5865 11.795C17.8007 11.4983 17.979 11.2008 18.1073 10.9158C18.2307 10.6425 18.3332 10.3241 18.3332 9.99996C18.3332 9.67663 18.2307 9.35746 18.1082 9.08413C17.9638 8.77454 17.789 8.48004 17.5865 8.20496C17.159 7.61079 16.5565 6.97163 15.8257 6.38246C14.3732 5.21163 12.319 4.16663 9.99984 4.16663ZM9.1665 9.99996C9.1665 9.77895 9.2543 9.56698 9.41058 9.4107C9.56686 9.25442 9.77882 9.16663 9.99984 9.16663C10.2209 9.16663 10.4328 9.25442 10.5891 9.4107C10.7454 9.56698 10.8332 9.77895 10.8332 9.99996C10.8332 10.221 10.7454 10.4329 10.5891 10.5892C10.4328 10.7455 10.2209 10.8333 9.99984 10.8333C9.77882 10.8333 9.56686 10.7455 9.41058 10.5892C9.2543 10.4329 9.1665 10.221 9.1665 9.99996ZM9.99984 7.49996C9.3368 7.49996 8.70091 7.76335 8.23207 8.23219C7.76323 8.70103 7.49984 9.33692 7.49984 9.99996C7.49984 10.663 7.76323 11.2989 8.23207 11.7677C8.70091 12.2366 9.3368 12.5 9.99984 12.5C10.6629 12.5 11.2988 12.2366 11.7676 11.7677C12.2364 11.2989 12.4998 10.663 12.4998 9.99996C12.4998 9.33692 12.2364 8.70103 11.7676 8.23219C11.2988 7.76335 10.6629 7.49996 9.99984 7.49996Z" fill="#92A1B7"/>
</svg>
