<svg width="16" height="16" viewBox="0 0 16 16" fill="none" xmlns="http://www.w3.org/2000/svg">
<path d="M13.3333 5.99979C13.4966 5.99981 13.6542 6.05976 13.7762 6.16827C13.8983 6.27678 13.9762 6.42629 13.9953 6.58846L14 6.66646V9.99979C14 10.684 13.737 11.3419 13.2655 11.8377C12.794 12.3334 12.15 12.6289 11.4667 12.6631L11.3333 12.6665H5.40467L5.39133 12.9431L5.36867 13.2891C5.35067 13.5198 5.134 13.6605 4.948 13.5625L4.744 13.4531L4.504 13.3178L4.372 13.2398L4.08533 13.0645C4.03423 13.0321 3.98334 12.9995 3.93267 12.9665L3.624 12.7598L3.484 12.6618L3.23267 12.4798L3.02267 12.3198C2.99299 12.2968 2.96344 12.2737 2.934 12.2505C2.77667 12.1251 2.784 11.8731 2.94933 11.7425L3.136 11.5978L3.36267 11.4298L3.62933 11.2418L3.93333 11.0385L4.24133 10.8445L4.51867 10.6785L4.762 10.5418L4.96667 10.4318C5.15 10.3365 5.34733 10.4558 5.36533 10.6718L5.382 10.9031L5.398 11.1798L5.40467 11.3331H11.3333C11.6697 11.3332 11.9937 11.2062 12.2404 10.9775C12.487 10.7487 12.6381 10.4352 12.6633 10.0998L12.6667 9.99979V6.66646C12.6667 6.48965 12.7369 6.32008 12.8619 6.19506C12.987 6.07003 13.1565 5.99979 13.3333 5.99979ZM11.052 2.43646L11.256 2.54646L11.496 2.68179L11.628 2.75979L11.9147 2.93513L12.0673 3.03313L12.376 3.23979L12.516 3.33779L12.7673 3.51979L12.9773 3.67979L13.066 3.74913C13.2233 3.87446 13.216 4.12646 13.0507 4.25713L12.864 4.40179L12.6373 4.56979L12.3707 4.75779L12.0667 4.96113L11.7587 5.15513L11.4813 5.32113L11.238 5.45779L11.0333 5.56779C10.85 5.66313 10.652 5.54379 10.6347 5.32779L10.618 5.09646L10.602 4.81979C10.5995 4.76869 10.5973 4.71758 10.5953 4.66646H4.66667C4.31304 4.66646 3.97391 4.80694 3.72386 5.05698C3.47381 5.30703 3.33333 5.64617 3.33333 5.99979V9.33313C3.33333 9.50994 3.2631 9.67951 3.13807 9.80453C3.01305 9.92955 2.84348 9.99979 2.66667 9.99979C2.48986 9.99979 2.32029 9.92955 2.19526 9.80453C2.07024 9.67951 2 9.50994 2 9.33313V5.99979C2 5.29255 2.28095 4.61427 2.78105 4.11417C3.28115 3.61408 3.95942 3.33313 4.66667 3.33313H10.5953L10.6087 3.05646L10.6233 2.81646L10.6313 2.71046C10.6493 2.47979 10.866 2.33846 11.052 2.43646Z" fill="#363F4D"/>
</svg>
