<svg width="28" height="28" viewBox="0 0 28 28" fill="none" xmlns="http://www.w3.org/2000/svg">
<path d="M7 12C7.53043 12 8.03914 12.2107 8.41421 12.5858C8.78929 12.9609 9 13.4696 9 14C9 14.5304 8.78929 15.0391 8.41421 15.4142C8.03914 15.7893 7.53043 16 7 16C6.46957 16 5.96086 15.7893 5.58579 15.4142C5.21071 15.0391 5 14.5304 5 14C5 13.4696 5.21071 12.9609 5.58579 12.5858C5.96086 12.2107 6.46957 12 7 12ZM14 12C14.5304 12 15.0391 12.2107 15.4142 12.5858C15.7893 12.9609 16 13.4696 16 14C16 14.5304 15.7893 15.0391 15.4142 15.4142C15.0391 15.7893 14.5304 16 14 16C13.4696 16 12.9609 15.7893 12.5858 15.4142C12.2107 15.0391 12 14.5304 12 14C12 13.4696 12.2107 12.9609 12.5858 12.5858C12.9609 12.2107 13.4696 12 14 12ZM21 12C21.5304 12 22.0391 12.2107 22.4142 12.5858C22.7893 12.9609 23 13.4696 23 14C23 14.5304 22.7893 15.0391 22.4142 15.4142C22.0391 15.7893 21.5304 16 21 16C20.4696 16 19.9609 15.7893 19.5858 15.4142C19.2107 15.0391 19 14.5304 19 14C19 13.4696 19.2107 12.9609 19.5858 12.5858C19.9609 12.2107 20.4696 12 21 12Z" fill="#09244B"/>
</svg>
