<svg width="16" height="16" viewBox="0 0 16 16" fill="none" xmlns="http://www.w3.org/2000/svg">
<path d="M7.9987 1.33334C11.6807 1.33334 14.6654 4.31801 14.6654 8.00001C14.6654 11.682 11.6807 14.6667 7.9987 14.6667C4.3167 14.6667 1.33203 11.682 1.33203 8.00001C1.33203 4.31801 4.3167 1.33334 7.9987 1.33334ZM6.5847 5.64268C6.465 5.52184 6.30365 5.45132 6.13367 5.44555C5.96368 5.43979 5.79792 5.49921 5.67031 5.61165C5.5427 5.7241 5.4629 5.88107 5.44723 6.05043C5.43156 6.21979 5.48122 6.38873 5.58603 6.52268L5.64203 6.58601L7.05536 7.99934L5.64203 9.41401C5.5212 9.53371 5.45068 9.69506 5.44491 9.86504C5.43914 10.035 5.49856 10.2008 5.61101 10.3284C5.72345 10.456 5.88042 10.5358 6.04978 10.5515C6.21914 10.5671 6.38808 10.5175 6.52203 10.4127L6.5847 10.3573L7.9987 8.94268L9.4127 10.3573C9.53239 10.4782 9.69374 10.5487 9.86373 10.5545C10.0337 10.5602 10.1995 10.5008 10.3271 10.3884C10.4547 10.2759 10.5345 10.119 10.5502 9.94959C10.5658 9.78024 10.5162 9.61129 10.4114 9.47734L10.356 9.41401L8.94136 8.00001L10.356 6.58601C10.4769 6.46632 10.5474 6.30496 10.5532 6.13498C10.5589 5.96499 10.4995 5.79923 10.3871 5.67162C10.2746 5.54401 10.1176 5.46421 9.94828 5.44854C9.77892 5.43287 9.60998 5.48253 9.47603 5.58734L9.4127 5.64268L7.9987 7.05734L6.5847 5.64268Z" fill="#CCCDD0"/>
</svg>
