<svg width="24" height="24" viewBox="0 0 24 24" fill="none" xmlns="http://www.w3.org/2000/svg">
<path fill-rule="evenodd" clip-rule="evenodd" d="M8.46466 10.293C8.65219 10.1055 8.9065 10.0002 9.17166 10.0002C9.43683 10.0002 9.69113 10.1055 9.87866 10.293L11.9997 12.414L14.1207 10.293C14.3082 10.1053 14.5625 9.99985 14.8278 9.99976C15.0931 9.99966 15.3475 10.1049 15.5352 10.2925C15.7228 10.48 15.8283 10.7343 15.8284 10.9996C15.8285 11.2649 15.7232 11.5193 15.5357 11.707L12.7067 14.536C12.5191 14.7234 12.2648 14.8287 11.9997 14.8287C11.7345 14.8287 11.4802 14.7234 11.2927 14.536L8.46466 11.707C8.27719 11.5194 8.17188 11.2651 8.17188 11C8.17188 10.7348 8.27719 10.4805 8.46466 10.293Z" fill="#92A1B7"/>
</svg>
